<svg width="25" height="25" viewBox="0 0 25 25" fill="none" xmlns="http://www.w3.org/2000/svg">
<path d="M12.5 2.34375V22.6562" stroke="#A2AEB3" stroke-width="2" stroke-linecap="round" stroke-linejoin="round"/>
<path d="M17.9688 8.59375C17.9688 8.08077 17.8677 7.57282 17.6714 7.09889C17.4751 6.62496 17.1874 6.19434 16.8246 5.83161C16.4619 5.46889 16.0313 5.18115 15.5574 4.98485C15.0834 4.78854 14.5755 4.6875 14.0625 4.6875H10.5469C9.51087 4.6875 8.5173 5.09905 7.78474 5.83161C7.05218 6.56418 6.64063 7.55775 6.64062 8.59375C6.64063 9.62975 7.05218 10.6233 7.78474 11.3559C8.5173 12.0884 9.51087 12.5 10.5469 12.5H14.8438C15.8798 12.5 16.8733 12.9116 17.6059 13.6441C18.3384 14.3767 18.75 15.3702 18.75 16.4062C18.75 17.4423 18.3384 18.4358 17.6059 19.1684C16.8733 19.9009 15.8798 20.3125 14.8438 20.3125H10.1562C9.12025 20.3125 8.12668 19.9009 7.39411 19.1684C6.66155 18.4358 6.25 17.4423 6.25 16.4062" stroke="#A2AEB3" stroke-width="2" stroke-linecap="round" stroke-linejoin="round"/>
</svg>
