<svg width="293" height="292" viewBox="0 0 293 292" fill="none" xmlns="http://www.w3.org/2000/svg">
<g filter="url(#filter0_f_140_476)">
<circle cx="146.926" cy="146" r="90" fill="white" fill-opacity="0.1"/>
</g>
<circle cx="146.926" cy="146" r="74" fill="#A3B2BF" stroke="#62788D" stroke-width="8"/>
<mask id="mask0_140_476" style="mask-type:alpha" maskUnits="userSpaceOnUse" x="76" y="76" width="141" height="140">
<circle cx="146.926" cy="146" r="70" fill="#FFC240"/>
</mask>
<g mask="url(#mask0_140_476)">
<circle cx="130.926" cy="146" r="70" fill="#778192"/>
</g>
<path fill-rule="evenodd" clip-rule="evenodd" d="M122.926 95.0475C122.926 92.0876 119.912 90.1005 117.313 91.5164C104.088 98.7195 93.7773 110.597 88.5988 124.93C87.687 127.453 89.6424 130 92.3255 130C94.1158 130 95.6826 128.828 96.3075 127.151C100.811 115.062 109.52 105.022 120.656 98.8098C122.029 98.044 122.926 96.6195 122.926 95.0475Z" fill="#BDC3D9"/>
<circle cx="87.9263" cy="139" r="4" fill="#BDC3D9"/>
<path fill-rule="evenodd" clip-rule="evenodd" d="M216.923 145.376C216.922 145.179 217.012 144.993 217.168 144.872C217.752 144.42 218.326 143.967 218.889 143.513C226.301 137.525 231.493 131.585 234.455 126.158C237.39 120.78 237.922 116.359 236.964 112.783C236.005 109.206 233.335 105.643 228.104 102.454C222.825 99.2348 215.358 96.6858 205.945 95.2071C202.506 94.6668 198.858 94.2774 195.029 94.0455C194.208 93.9958 193.423 93.6668 192.802 93.128C190.085 90.7701 191.593 85.8315 195.184 86.0406C221.635 87.5804 240.809 96.2239 244.691 110.712C251.224 135.093 211.977 166.793 157.03 181.516C114.072 193.027 74.2367 190.753 55.7759 177.562C53.5359 175.962 53.9623 172.711 56.3464 171.335C57.8726 170.454 59.7734 170.64 61.2414 171.615C61.5814 171.841 61.9335 172.065 62.2981 172.287C67.5772 175.506 75.0435 178.055 84.4564 179.534C103.26 182.488 128.307 180.931 154.959 173.789C179.617 167.182 200.694 157.123 215.436 146.184C215.598 146.064 215.792 146 215.993 146H216.302C216.647 146 216.927 145.72 216.923 145.376ZM52.5603 164.283C53.3575 163.823 53.6762 162.847 53.4379 161.958C52.4796 158.382 53.0113 153.961 55.9466 148.583C58.9091 143.156 64.1006 137.215 71.513 131.228C73.864 129.329 76.4081 127.45 79.1314 125.604C79.8091 125.144 80.3139 124.472 80.5748 123.696C81.7233 120.279 77.9115 116.777 74.9231 118.792C53.6235 133.155 41.9067 149.833 45.7105 164.029C46.2266 165.955 48.4649 166.648 50.1918 165.651L52.5603 164.283Z" fill="#62788D"/>
<path fill-rule="evenodd" clip-rule="evenodd" d="M210.246 179C209.128 179.229 208.163 179.933 207.594 180.922C205.935 183.802 208.194 187.572 211.452 186.918C225.872 184.021 236.7 178.411 241.931 170.404C243.561 167.91 241.465 165 238.486 165C236.858 165 235.397 165.924 234.387 167.2C232.927 169.046 230.874 170.84 228.104 172.529C223.656 175.241 217.655 177.478 210.246 179ZM241.642 160C239.333 160 237.534 157.994 237.085 155.73C236.669 153.629 235.823 151.331 234.455 148.825C231.493 143.398 226.301 137.458 218.889 131.471C204.081 119.511 181.612 108.336 154.959 101.194C128.307 94.0525 103.26 92.4956 84.4564 95.4495C75.0435 96.9282 67.5772 99.4773 62.2981 102.696C57.0672 105.886 54.3963 109.448 53.4379 113.025C52.4796 116.602 53.0113 121.023 55.9466 126.4C58.9091 131.827 64.1006 137.768 71.513 143.755C72.7652 144.766 74.0722 145.772 75.4319 146.77C76.3827 147.468 76.9631 148.562 77.0262 149.74C77.2006 152.998 73.5827 155.326 70.9475 153.402C52.1854 139.701 42.1505 124.241 45.7105 110.954C52.2435 86.5732 102.083 78.7437 157.03 93.4667C206.139 106.626 242.708 133.346 245.259 156.282C245.491 158.36 243.733 160 241.642 160Z" fill="#62788D"/>
<circle cx="129.926" cy="180.806" r="14" fill="#C7D8E9"/>
<path fill-rule="evenodd" clip-rule="evenodd" d="M119.926 170.053C119.926 166.279 115.912 164.073 113.548 167.015C110.656 170.613 108.926 175.184 108.926 180.159C108.926 191.757 118.328 201.159 129.926 201.159C141.524 201.159 150.926 191.757 150.926 180.159C150.926 170.803 144.808 162.876 136.353 160.161C134.041 159.418 131.926 161.352 131.926 163.78C131.926 165.812 133.451 167.478 135.301 168.319C139.799 170.364 142.926 174.896 142.926 180.159C142.926 187.339 137.106 193.159 129.926 193.159C122.747 193.159 116.926 187.339 116.926 180.159C116.926 177.646 117.639 175.299 118.875 173.31C119.488 172.323 119.926 171.215 119.926 170.053Z" fill="#62788D"/>
<circle cx="72.9263" cy="69" r="7" fill="#A3B2BF"/>
<circle cx="87.9263" cy="62" r="3" fill="#62788D"/>
<circle cx="210.926" cy="224" r="5" fill="#A3B2BF"/>
<circle cx="222.926" cy="211" r="6" fill="#62788D"/>
<circle cx="207.926" cy="208" r="3" fill="#62788D"/>
<defs>
<filter id="filter0_f_140_476" x="0.92627" y="0" width="292" height="292" filterUnits="userSpaceOnUse" color-interpolation-filters="sRGB">
<feFlood flood-opacity="0" result="BackgroundImageFix"/>
<feBlend mode="normal" in="SourceGraphic" in2="BackgroundImageFix" result="shape"/>
<feGaussianBlur stdDeviation="28" result="effect1_foregroundBlur_140_476"/>
</filter>
</defs>
</svg>
