<svg width="218" height="218" viewBox="0 0 218 218" fill="none" xmlns="http://www.w3.org/2000/svg">
<path d="M193.972 177.269C182.43 191.636 167.433 202.842 150.383 209.839C133.334 216.836 114.788 219.395 96.4809 217.279C78.1735 215.162 60.7017 208.438 45.6986 197.735C30.6955 187.032 18.6511 172.7 10.6912 156.078C2.73133 139.457 -0.88412 121.088 0.182817 102.69C1.24975 84.2912 6.96424 66.4636 16.7921 50.8734C26.62 35.2831 40.2403 22.4393 56.38 13.5425C72.5197 4.64566 90.6516 -0.0136703 109.081 3.01192e-05L109.053 38.15C97.0736 38.1411 85.2878 41.1697 74.797 46.9526C64.3062 52.7356 55.453 61.084 49.0649 71.2177C42.6768 81.3513 38.9623 92.9393 38.2688 104.898C37.5753 116.857 39.9254 128.797 45.0993 139.601C50.2732 150.405 58.1021 159.721 67.8541 166.678C77.6061 173.635 88.9628 178.005 100.863 179.381C112.762 180.757 124.817 179.093 135.899 174.545C146.981 169.997 156.729 162.713 164.232 153.375L193.972 177.269Z" fill="#085FE1"/>
<path d="M109 0C124.632 1.86414e-07 140.082 3.36247 154.3 9.85927L138.445 44.5585C129.203 40.3356 119.161 38.15 109 38.15V0Z" fill="#0E225D"/>
<path d="M154.29 9.85467C168.165 16.193 180.556 25.3731 190.66 36.8012C200.764 48.2294 208.357 61.6511 212.947 76.1984L176.566 87.6789C173.582 78.2232 168.647 69.4991 162.079 62.0708C155.511 54.6425 147.458 48.6754 138.439 44.5555L154.29 9.85467Z" fill="#244FD8"/>
<path d="M212.949 76.2028C218.356 93.3393 219.442 111.547 216.111 129.205C212.78 146.862 205.136 163.423 193.858 177.412L164.157 153.468C171.488 144.375 176.457 133.611 178.622 122.133C180.787 110.655 180.081 98.8206 176.567 87.6818L212.949 76.2028Z" fill="#00CBF8"/>
</svg>
