<svg width="25" height="25" viewBox="0 0 25 25" fill="none" xmlns="http://www.w3.org/2000/svg">
<path d="M1.5625 21.0922H23.4375" stroke="#F8F8F8" stroke-width="2" stroke-linecap="round" stroke-linejoin="round"/>
<path d="M14.0625 21.0922V3.90472C14.0625 3.69752 13.9802 3.49881 13.8337 3.3523C13.6872 3.20578 13.4885 3.12347 13.2812 3.12347H3.90625C3.69905 3.12347 3.50034 3.20578 3.35382 3.3523C3.20731 3.49881 3.125 3.69752 3.125 3.90472V21.0922" stroke="#F8F8F8" stroke-width="2" stroke-linecap="round" stroke-linejoin="round"/>
<path d="M21.875 21.0922V10.1547C21.875 9.94752 21.7927 9.74881 21.6462 9.6023C21.4997 9.45578 21.301 9.37347 21.0938 9.37347H14.0625" stroke="#F8F8F8" stroke-width="2" stroke-linecap="round" stroke-linejoin="round"/>
<path d="M6.25 7.02972H9.375" stroke="#F8F8F8" stroke-width="2" stroke-linecap="round" stroke-linejoin="round"/>
<path d="M7.8125 13.2797H10.9375" stroke="#F8F8F8" stroke-width="2" stroke-linecap="round" stroke-linejoin="round"/>
<path d="M6.25 17.186H9.375" stroke="#F8F8F8" stroke-width="2" stroke-linecap="round" stroke-linejoin="round"/>
<path d="M17.1875 17.186H18.75" stroke="#F8F8F8" stroke-width="2" stroke-linecap="round" stroke-linejoin="round"/>
<path d="M17.1875 13.2797H18.75" stroke="#F8F8F8" stroke-width="2" stroke-linecap="round" stroke-linejoin="round"/>
</svg>
