<svg width="25" height="25" viewBox="0 0 25 25" fill="none" xmlns="http://www.w3.org/2000/svg">
<path d="M20.3125 3.90625H4.6875C4.25603 3.90625 3.90625 4.25603 3.90625 4.6875V20.3125C3.90625 20.744 4.25603 21.0938 4.6875 21.0938H20.3125C20.744 21.0938 21.0938 20.744 21.0938 20.3125V4.6875C21.0938 4.25603 20.744 3.90625 20.3125 3.90625Z" stroke="#F8F8F8" stroke-width="2" stroke-linecap="round" stroke-linejoin="round"/>
<path d="M21.0937 15.6249L16.9587 11.4898C16.8122 11.3433 16.6134 11.261 16.4062 11.261C16.199 11.261 16.0003 11.3433 15.8538 11.4898L11.4899 15.8537C11.3434 16.0002 11.1447 16.0825 10.9375 16.0825C10.7303 16.0825 10.5316 16.0002 10.3851 15.8537L8.36492 13.8336C8.21841 13.687 8.0197 13.6047 7.8125 13.6047C7.6053 13.6047 7.40658 13.687 7.26007 13.8336L3.90625 17.1874" stroke="#F8F8F8" stroke-width="2" stroke-linecap="round" stroke-linejoin="round"/>
<path d="M9.76562 10.1562C10.4128 10.1562 10.9375 9.63158 10.9375 8.98438C10.9375 8.33717 10.4128 7.8125 9.76562 7.8125C9.11842 7.8125 8.59375 8.33717 8.59375 8.98438C8.59375 9.63158 9.11842 10.1562 9.76562 10.1562Z" fill="#F8F8F8"/>
</svg>
