<svg width="25" height="25" viewBox="0 0 25 25" fill="none" xmlns="http://www.w3.org/2000/svg">
<path d="M1.95312 21.0938H8.98438C9.98873 21.0938 10.9705 20.7959 11.8056 20.2379C12.6407 19.6799 13.2916 18.8868 13.676 17.9589C14.0603 17.031 14.1609 16.01 13.9649 15.0249C13.769 14.0399 13.2853 13.135 12.5752 12.4249C11.865 11.7147 10.9601 11.231 9.97507 11.0351C8.99001 10.8391 7.96897 10.9397 7.04106 11.3241C6.11315 11.7084 5.32006 12.3593 4.76207 13.1944C4.20408 14.0295 3.90625 15.0113 3.90625 16.0156C3.90625 19.5313 1.95312 21.0938 1.95312 21.0938Z" stroke="#F8F8F8" stroke-width="2" stroke-linecap="round" stroke-linejoin="round"/>
<path d="M10.9766 11.3438C12.851 8.81769 17.6198 3.0304 21.9691 3.0304C21.9691 7.37964 16.1819 12.1484 13.6557 14.0229" stroke="#F8F8F8" stroke-width="2" stroke-linecap="round" stroke-linejoin="round"/>
<path d="M12.9844 8.85239C14.3103 9.59504 15.4051 10.6898 16.1477 12.0157" stroke="#F8F8F8" stroke-width="2" stroke-linecap="round" stroke-linejoin="round"/>
</svg>
