<svg width="25" height="25" viewBox="0 0 25 25" fill="none" xmlns="http://www.w3.org/2000/svg">
<path d="M12.5 19.5312C16.3833 19.5312 19.5312 16.3833 19.5312 12.5C19.5312 8.61675 16.3833 5.46875 12.5 5.46875C8.61675 5.46875 5.46875 8.61675 5.46875 12.5C5.46875 16.3833 8.61675 19.5312 12.5 19.5312Z" stroke="#F8F8F8" stroke-width="2" stroke-miterlimit="10"/>
<path d="M12.5 8.59375V12.5H16.4062" stroke="#F8F8F8" stroke-width="2" stroke-linecap="round" stroke-linejoin="round"/>
<path d="M8.59375 6.6531L9.25863 2.98564C9.29128 2.80555 9.38612 2.64263 9.52661 2.52532C9.6671 2.40801 9.84432 2.34375 10.0274 2.34375H14.9726C15.1557 2.34375 15.3329 2.40801 15.4734 2.52532C15.6139 2.64263 15.7087 2.80555 15.7414 2.98564L16.4062 6.65312" stroke="#F8F8F8" stroke-width="2" stroke-linecap="round" stroke-linejoin="round"/>
<path d="M8.59375 18.3472L9.25863 22.0147C9.29128 22.1947 9.38612 22.3577 9.52661 22.475C9.6671 22.5923 9.84432 22.6565 10.0274 22.6565H14.9726C15.1557 22.6565 15.3329 22.5923 15.4734 22.475C15.6139 22.3577 15.7087 22.1947 15.7414 22.0147L16.4062 18.3472" stroke="#F8F8F8" stroke-width="2" stroke-linecap="round" stroke-linejoin="round"/>
</svg>
