<svg width="25" height="17" viewBox="0 0 25 17" fill="none" xmlns="http://www.w3.org/2000/svg">
<path d="M5.59971 1.25079L5.6565 0.252402L5.59971 1.25079ZM4.51123 2.30337L5.39951 2.76266L5.41211 2.7383L5.42336 2.71328L4.51123 2.30337ZM3.78557 3.70681L2.89729 3.24752V3.24752L3.78557 3.70681ZM3.42275 4.40854L4.20984 5.02537L4.26784 4.95136L4.31103 4.86783L3.42275 4.40854ZM1.97143 6.5137L2.84556 6.9994L1.97143 6.5137ZM1.60861 7.21542L2.5832 7.43939L1.60861 7.21542ZM1.60861 7.91714L2.5832 7.69318L1.60861 7.91714ZM1.97143 8.61887L2.75066 7.99213L1.97143 8.61887ZM3.05992 9.32059L2.55939 10.1863L3.05992 9.32059ZM8.50234 11.0749L8.85114 10.1377L8.50234 11.0749ZM17.573 15.2852L17.5629 14.2853L17.573 15.2852ZM23.0154 13.8818L22.1774 13.3362L23.0154 13.8818ZM23.3804 13.1806L22.4058 12.9567L23.3804 13.1806ZM21.1552 10.7232L21.4102 9.75631L21.1552 10.7232ZM20.1128 10.724L19.8578 11.691L20.1128 10.724ZM19.3872 10.3732L19.864 9.49418L19.3872 10.3732ZM18.2987 9.67145L17.6837 10.46L18.2987 9.67145ZM16.4845 7.56628L17.2972 6.98349L16.4845 7.56628ZM15.3961 5.81198L14.5048 6.26549L15.3961 5.81198ZM14.6704 4.05767L13.7615 4.47463L14.6704 4.05767ZM12.1306 2.30337L11.5157 1.51481L12.1306 2.30337ZM10.6793 3.70681L10.1375 2.86633L10.6793 3.70681ZM8.86516 3.35595L8.54216 4.30235L8.86516 3.35595ZM7.41385 2.65423L6.83859 3.4722L7.41385 2.65423ZM6.32537 1.60165L5.79493 2.44937L6.32537 1.60165ZM5.6565 0.252402C5.18747 0.225721 4.81587 0.422309 4.57864 0.599223C4.33929 0.777719 4.15477 0.995523 4.02547 1.17095C3.89173 1.35239 3.78784 1.52881 3.71859 1.65604C3.68328 1.72091 3.65531 1.77608 3.63537 1.81677C3.62537 1.83718 3.6173 1.85415 3.61124 1.86708C3.60821 1.87355 3.60568 1.87903 3.60365 1.88345C3.60264 1.88566 3.60175 1.8876 3.601 1.88927C3.60062 1.89011 3.60027 1.89088 3.59995 1.89158C3.59979 1.89192 3.59964 1.89226 3.5995 1.89257C3.59943 1.89273 3.59933 1.89295 3.5993 1.89303C3.5992 1.89325 3.5991 1.89346 4.51123 2.30337C5.42336 2.71328 5.42326 2.71348 5.42317 2.71369C5.42315 2.71375 5.42306 2.71395 5.423 2.71407C5.42289 2.71432 5.42278 2.71455 5.42268 2.71477C5.42249 2.71521 5.42232 2.71558 5.42218 2.71589C5.42189 2.71652 5.42171 2.71691 5.42164 2.71706C5.4215 2.71737 5.42178 2.71675 5.42248 2.71527C5.42387 2.7123 5.42687 2.70595 5.4314 2.69671C5.44051 2.67811 5.45538 2.64865 5.47524 2.61216C5.51631 2.5367 5.57202 2.44358 5.63539 2.3576C5.70319 2.26562 5.75328 2.21814 5.77428 2.20248C5.79741 2.18524 5.7119 2.25879 5.54292 2.24917L5.6565 0.252402ZM3.62294 1.84408L2.89729 3.24752L4.67386 4.16611L5.39951 2.76266L3.62294 1.84408ZM2.89729 3.24752L2.53446 3.94924L4.31103 4.86783L4.67386 4.16611L2.89729 3.24752ZM3.42275 4.40854C2.63565 3.7917 2.63562 3.79174 2.63558 3.79179C2.63557 3.79181 2.63553 3.79186 2.63549 3.79191C2.63542 3.792 2.63534 3.7921 2.63524 3.79223C2.63504 3.79248 2.63478 3.79281 2.63447 3.79322C2.63384 3.79402 2.63297 3.79512 2.63188 3.79652C2.62971 3.79931 2.62662 3.80327 2.62267 3.80834C2.61477 3.81849 2.60341 3.83312 2.58895 3.85183C2.56004 3.88924 2.51867 3.94306 2.46772 4.01013C2.36595 4.14408 2.22518 4.33189 2.06855 4.54815C1.76199 4.97143 1.36968 5.5378 1.09731 6.028L2.84556 6.9994C3.0568 6.61922 3.39015 6.13301 3.68834 5.7213C3.83409 5.52007 3.96547 5.34478 4.06026 5.22001C4.10758 5.15772 4.14559 5.10827 4.17149 5.07476C4.18444 5.05801 4.19434 5.04525 4.20085 5.03689C4.20411 5.03271 4.20651 5.02963 4.20802 5.02769C4.20878 5.02672 4.20931 5.02604 4.20962 5.02565C4.20977 5.02546 4.20986 5.02534 4.2099 5.02529C4.20992 5.02527 4.20992 5.02526 4.20991 5.02528C4.20991 5.02528 4.20989 5.02531 4.20988 5.02531C4.20986 5.02534 4.20984 5.02537 3.42275 4.40854ZM1.09731 6.028C1.07592 6.0665 1.05284 6.10363 1.02185 6.15146C0.996451 6.19067 0.946602 6.26578 0.904918 6.33439C0.804178 6.50021 0.699059 6.70839 0.634009 6.99146L2.5832 7.43939C2.58689 7.42337 2.5882 7.41563 2.6142 7.37283C2.63588 7.33714 2.65448 7.30976 2.70043 7.23883C2.7408 7.17652 2.79197 7.09585 2.84556 6.9994L1.09731 6.028ZM0.634009 6.99146C0.538664 7.40636 0.538664 7.72621 0.634009 8.14111L2.5832 7.69318C2.56278 7.6043 2.5625 7.5749 2.5625 7.56628C2.5625 7.55767 2.56278 7.52827 2.5832 7.43939L0.634009 6.99146ZM0.634009 8.14111C0.747901 8.63672 0.940743 8.93296 1.1922 9.2456L2.75066 7.99213C2.66547 7.88621 2.6379 7.84256 2.62418 7.81697C2.61556 7.80089 2.60138 7.77229 2.5832 7.69318L0.634009 8.14111ZM1.1922 9.2456C1.45725 9.57513 1.73962 9.76529 1.99825 9.90323C2.11134 9.96356 2.23392 10.0207 2.31535 10.0599C2.40662 10.1039 2.48288 10.1421 2.55939 10.1863L3.56045 8.45487C3.41771 8.37234 3.28749 8.30822 3.18258 8.25773C3.06782 8.20251 3.00449 8.17323 2.93948 8.13856C2.8419 8.08651 2.79927 8.05257 2.75066 7.99213L1.1922 9.2456ZM2.55939 10.1863C3.64179 10.8121 4.58669 11.0837 5.48884 11.2962C6.39745 11.5102 7.18463 11.6515 8.15353 12.0121L8.85114 10.1377C7.72919 9.72013 6.7566 9.5401 5.94744 9.34947C5.13181 9.15733 4.40093 8.94081 3.56045 8.45487L2.55939 10.1863ZM8.15353 12.0121C9.84085 12.6401 10.9723 13.5884 12.3812 14.5365C13.7708 15.4715 15.325 16.3081 17.5832 16.2852L17.5629 14.2853C15.892 14.3022 14.7443 13.716 13.4977 12.8771C12.2703 12.0512 10.8309 10.8745 8.85114 10.1377L8.15353 12.0121ZM17.5832 16.2852C18.118 16.2798 18.6139 16.301 19.1712 16.3096C19.703 16.3177 20.2646 16.3131 20.8096 16.2417C21.9402 16.0936 23.0609 15.6449 23.8535 14.4273L22.1774 13.3362C21.7982 13.9188 21.2974 14.1607 20.5497 14.2587C20.1555 14.3103 19.7137 14.3177 19.2019 14.3098C18.7156 14.3023 18.1278 14.2796 17.5629 14.2853L17.5832 16.2852ZM23.8535 14.4273C23.9597 14.2642 24.2353 13.9252 24.355 13.4046L22.4058 12.9567C22.3969 12.9952 22.3893 13.0119 22.3717 13.0422C22.358 13.0656 22.3392 13.0949 22.3048 13.1459C22.2747 13.1906 22.2254 13.2624 22.1774 13.3362L23.8535 14.4273ZM24.355 13.4046C24.428 13.0867 24.5091 12.6849 24.3258 12.153L22.4349 12.8048C22.4407 12.8214 22.4402 12.824 22.439 12.8164C22.4377 12.808 22.4374 12.7994 22.4375 12.7948C22.4376 12.7921 22.4376 12.8001 22.4331 12.8268C22.4282 12.8556 22.4202 12.8939 22.4058 12.9567L24.355 13.4046ZM22.4833 10.2439C22.4462 10.2191 22.4267 10.2038 22.3812 10.1696C22.3342 10.1342 22.2517 10.0724 22.1388 10.0116C21.934 9.90127 21.6968 9.83188 21.4102 9.75631L20.9002 11.6902C21.0404 11.7272 21.1218 11.7513 21.1709 11.7677C21.2175 11.7833 21.2138 11.785 21.1904 11.7724C21.1642 11.7583 21.1477 11.7443 21.1777 11.7669C21.2092 11.7907 21.2775 11.8435 21.3707 11.9059L22.4833 10.2439ZM21.4102 9.75631C20.977 9.64205 20.6285 9.70986 20.4642 9.73816C20.3772 9.75316 20.3604 9.75475 20.3504 9.75515C20.3493 9.7552 20.3526 9.75504 20.3583 9.75561C20.3609 9.75587 20.3633 9.75621 20.3652 9.75656C20.3671 9.7569 20.3681 9.75715 20.3678 9.75709L19.8578 11.691C20.291 11.8052 20.6396 11.7374 20.8038 11.7091C20.8909 11.6941 20.9076 11.6925 20.9176 11.6921C20.9187 11.6921 20.9154 11.6922 20.9097 11.6917C20.9071 11.6914 20.9047 11.6911 20.9028 11.6907C20.9009 11.6904 20.9 11.6901 20.9002 11.6902L21.4102 9.75631ZM20.3678 9.75709C20.3074 9.74116 20.2696 9.72472 20.2155 9.69543C20.1801 9.67621 20.1435 9.65465 20.0815 9.61817C20.0238 9.5842 19.9499 9.54075 19.864 9.49418L18.9103 11.2522C19.0466 11.3261 19.3972 11.5695 19.8578 11.691L20.3678 9.75709ZM19.864 9.49418C19.4525 9.27096 19.2566 9.15036 18.9136 8.88289L17.6837 10.46C18.1361 10.8128 18.4307 10.992 18.9103 11.2522L19.864 9.49418ZM18.9136 8.88289C18.1927 8.32063 17.9629 7.91174 17.2972 6.98349L15.6719 8.14907C16.2675 8.97959 16.6818 9.67868 17.6837 10.46L18.9136 8.88289ZM17.2972 6.98349C16.8434 6.35079 16.6212 6.01472 16.2873 5.35847L14.5048 6.26549C14.9004 7.04298 15.184 7.46873 15.6719 8.14907L17.2972 6.98349ZM16.2873 5.35847C16.1452 5.07923 16.057 4.85193 15.9606 4.59197C15.8638 4.3309 15.753 4.01918 15.5793 3.64072L13.7615 4.47463C13.8973 4.77065 13.9808 5.00506 14.0853 5.28701C14.1902 5.57006 14.31 5.88266 14.5048 6.26549L16.2873 5.35847ZM15.5793 3.64072C15.3817 3.20985 15.1389 2.70512 14.9255 2.28687C14.8193 2.07868 14.716 1.88356 14.6268 1.72668C14.5826 1.64891 14.5366 1.57139 14.4918 1.50253C14.4618 1.45643 14.3843 1.33734 14.2771 1.23365L12.8868 2.67137C12.815 2.60193 12.786 2.54806 12.8153 2.59316C12.8299 2.61549 12.854 2.65513 12.8884 2.71551C12.9563 2.83492 13.044 2.99998 13.144 3.19594C13.3431 3.58596 13.5737 4.0653 13.7615 4.47463L15.5793 3.64072ZM14.2771 1.23365C14.2062 1.16514 14.1509 1.11168 14.0957 1.05822C14.0404 1.00476 13.9851 0.951296 13.9142 0.882786L12.5239 2.32051C12.5948 2.38902 12.6501 2.44248 12.7054 2.49594C12.7606 2.5494 12.8159 2.60286 12.8868 2.67137L14.2771 1.23365ZM13.9142 0.882786C13.6357 0.613468 13.3012 0.567377 13.0818 0.581933C12.8819 0.595193 12.722 0.658483 12.6328 0.698863C12.4499 0.781669 12.2828 0.900721 12.1702 0.985329C12.0458 1.0788 11.9179 1.18442 11.8097 1.2743C11.6935 1.37077 11.5998 1.44923 11.5157 1.51481L12.7456 3.09193C12.8603 3.00245 12.9843 2.89853 13.0874 2.81294C13.1984 2.72077 13.2912 2.64465 13.3715 2.58433C13.4636 2.51514 13.4852 2.50835 13.4575 2.52089C13.446 2.52613 13.3554 2.56818 13.2141 2.57755C13.0534 2.58821 12.767 2.55557 12.5239 2.32051L13.9142 0.882786ZM11.5157 1.51481C11.0033 1.91439 10.6453 2.34858 10.347 2.63709L11.7373 4.07482C12.2891 3.54121 12.3221 3.42221 12.7456 3.09193L11.5157 1.51481ZM10.347 2.63709C10.2877 2.69444 10.24 2.74627 10.2035 2.78711C10.1864 2.80624 10.1694 2.82565 10.1584 2.83812C10.1459 2.85234 10.138 2.86116 10.1314 2.86839C10.1194 2.8816 10.1187 2.8815 10.1236 2.87711C10.1297 2.87174 10.1353 2.8677 10.1375 2.86633L11.2211 4.5473C11.4004 4.43173 11.5208 4.31293 11.6088 4.21653C11.6346 4.18822 11.69 4.12514 11.6947 4.11982C11.7135 4.09882 11.7257 4.08597 11.7373 4.07482L10.347 2.63709ZM10.1375 2.86633C10.1332 2.86909 10.1411 2.86345 10.16 2.85757C10.1793 2.85157 10.1988 2.84884 10.2143 2.84847C10.2409 2.84784 10.2282 2.85488 10.1453 2.8246C10.0543 2.79136 9.95595 2.74388 9.78258 2.66105C9.62792 2.58717 9.41973 2.48859 9.18817 2.40956L8.54216 4.30235C8.65125 4.33958 8.76501 4.39144 8.92045 4.46569C9.05717 4.53101 9.25701 4.62937 9.45923 4.70323C9.91361 4.86918 10.5576 4.97507 11.2211 4.5473L10.1375 2.86633ZM9.18817 2.40956C8.63326 2.22017 8.39176 2.11943 7.98912 1.83626L6.83859 3.4722C7.46089 3.90986 7.90197 4.08385 8.54216 4.30235L9.18817 2.40956ZM7.98912 1.83626C7.87354 1.75498 7.80717 1.67608 7.65004 1.48433C7.49162 1.29099 7.25508 1.00376 6.8558 0.753924L5.79493 2.44937C5.90036 2.51534 5.96498 2.58344 6.10308 2.75197C6.24247 2.92207 6.46799 3.21156 6.83859 3.4722L7.98912 1.83626ZM6.8558 0.753924C6.81619 0.729134 6.77939 0.703342 6.72004 0.661543C6.6686 0.625319 6.58533 0.566285 6.49289 0.511262C6.2777 0.383169 6.0083 0.272413 5.6565 0.252402L5.54292 2.24917C5.53586 2.24877 5.51654 2.24637 5.49232 2.23829C5.46977 2.23075 5.45984 2.22385 5.4699 2.22984C5.48609 2.23947 5.50831 2.25438 5.56845 2.29673C5.62067 2.33351 5.70155 2.39094 5.79493 2.44937L6.8558 0.753924ZM21.3707 11.9059C21.3699 11.9053 21.391 11.9201 21.4402 11.959C21.485 11.9944 21.5413 12.0405 21.6061 12.0952C21.7357 12.2047 21.8891 12.34 22.0373 12.4777C22.1876 12.6171 22.3214 12.7487 22.4171 12.8525C22.4656 12.905 22.4936 12.939 22.5062 12.9555C22.5364 12.9953 22.4789 12.9323 22.4349 12.8048L24.3258 12.153C24.2594 11.9605 24.1478 11.8104 24.0995 11.7467C24.0336 11.6597 23.9587 11.5739 23.8871 11.4963C23.7426 11.3397 23.5675 11.1692 23.3981 11.012C23.0779 10.7147 22.686 10.3796 22.4833 10.2439L21.3707 11.9059Z" fill="#F8F8F8"/>
</svg>
