<svg width="25" height="25" viewBox="0 0 25 25" fill="none" xmlns="http://www.w3.org/2000/svg">
<path d="M12.5 21.875C17.6777 21.875 21.875 17.6777 21.875 12.5C21.875 7.32233 17.6777 3.125 12.5 3.125C7.32233 3.125 3.125 7.32233 3.125 12.5C3.125 17.6777 7.32233 21.875 12.5 21.875Z" stroke="#F8F8F8" stroke-width="2" stroke-miterlimit="10"/>
<path d="M12.5 13.6719C13.1472 13.6719 13.6719 13.1472 13.6719 12.5C13.6719 11.8528 13.1472 11.3281 12.5 11.3281C11.8528 11.3281 11.3281 11.8528 11.3281 12.5C11.3281 13.1472 11.8528 13.6719 12.5 13.6719Z" fill="#F8F8F8"/>
<path d="M17.1875 13.6719C17.8347 13.6719 18.3594 13.1472 18.3594 12.5C18.3594 11.8528 17.8347 11.3281 17.1875 11.3281C16.5403 11.3281 16.0156 11.8528 16.0156 12.5C16.0156 13.1472 16.5403 13.6719 17.1875 13.6719Z" fill="#F8F8F8"/>
<path d="M7.8125 13.6719C8.45971 13.6719 8.98438 13.1472 8.98438 12.5C8.98438 11.8528 8.45971 11.3281 7.8125 11.3281C7.16529 11.3281 6.64062 11.8528 6.64062 12.5C6.64062 13.1472 7.16529 13.6719 7.8125 13.6719Z" fill="#F8F8F8"/>
</svg>
