<svg width="25" height="25" viewBox="0 0 25 25" fill="none" xmlns="http://www.w3.org/2000/svg">
<path d="M21.875 17.3174V7.68433C21.875 7.5457 21.8381 7.40958 21.7681 7.28992C21.6981 7.17025 21.5976 7.07137 21.4768 7.00341L12.883 2.16942C12.7661 2.10365 12.6342 2.06909 12.5 2.06909C12.3658 2.06909 12.2339 2.10365 12.117 2.16942L3.52323 7.00341C3.40241 7.07137 3.30185 7.17025 3.23187 7.28992C3.16188 7.40958 3.125 7.5457 3.125 7.68433V17.3174C3.125 17.456 3.16188 17.5921 3.23187 17.7118C3.30185 17.8314 3.40241 17.9303 3.52323 17.9983L12.117 22.8323C12.2339 22.8981 12.3658 22.9326 12.5 22.9326C12.6342 22.9326 12.7661 22.8981 12.883 22.8323L21.4768 17.9983C21.5976 17.9303 21.6981 17.8314 21.7681 17.7118C21.8381 17.5921 21.875 17.456 21.875 17.3174Z" stroke="#F8F8F8" stroke-width="2" stroke-linecap="round" stroke-linejoin="round"/>
<path d="M21.7659 7.28848L12.5913 12.5008L3.23181 7.2876" stroke="#F8F8F8" stroke-width="2" stroke-linecap="round" stroke-linejoin="round"/>
<path d="M12.5917 12.5L12.5 22.9318" stroke="#F8F8F8" stroke-width="2" stroke-linecap="round" stroke-linejoin="round"/>
</svg>
