<svg width="25" height="25" viewBox="0 0 25 25" fill="none" xmlns="http://www.w3.org/2000/svg">
<path d="M19 5.50003C19 7.15688 15.5899 8.50003 12 8.50003C8.41015 8.50003 5 7.15688 5 5.50003C5 3.84318 8.41015 2.50003 12 2.50003C15.5899 2.50003 19 3.84318 19 5.50003Z" stroke="#F8F8F8" stroke-width="2"/>
<path d="M6.00012 16C6.00012 16 6.00012 18.3432 6.00012 20C6.00012 21.6569 8.68641 23 12.0001 23C15.3138 23 18.0001 21.6569 18.0001 20C18.0001 19.173 18.0001 16 18.0001 16" stroke="#F8F8F8" stroke-width="2" stroke-linecap="square"/>
<path d="M6.00012 9.99998C6.00012 9.99998 6.00012 14.1649 6.00012 15.5294C6.00012 16.8939 8.68641 18 12.0001 18C15.3138 18 18.0001 16.8939 18.0001 15.5294C18.0001 14.8483 18.0001 9.99998 18.0001 9.99998" stroke="#F8F8F8" stroke-width="2"/>
<path d="M6.00012 7.42856C6.00012 7.42856 6.00012 9.50734 6.00012 10.75C6.00012 11.9926 8.68641 13 12.0001 13C15.3138 13 18.0001 11.9926 18.0001 10.75C18.0001 10.1297 18.0001 6.99998 18.0001 6.99998" stroke="#F8F8F8" stroke-width="2"/>
<path d="M19 20C19 21.6569 15.5899 23 12 23C8.41015 23 5 21.6569 5 20" stroke="#F8F8F8" stroke-width="2" stroke-linecap="round"/>
<path d="M9.12109 5.49996C9.12109 5.89762 8.82986 6.32797 8.12109 6.32797C7.41232 6.32797 7.12109 5.89762 7.12109 5.49996C7.12109 5.1023 7.36483 4.69533 8.12109 4.69533C8.78678 4.69533 9.12109 5.1023 9.12109 5.49996Z" fill="#F8F8F8"/>
</svg>
