<svg width="25" height="25" viewBox="0 0 25 25" fill="none" xmlns="http://www.w3.org/2000/svg">
<path d="M4.6875 13.6314V20.3123C4.6875 20.5195 4.76981 20.7182 4.91632 20.8647C5.06284 21.0112 5.26155 21.0935 5.46875 21.0935H19.5312C19.7385 21.0935 19.9372 21.0112 20.0837 20.8647C20.2302 20.7182 20.3125 20.5195 20.3125 20.3123V13.6316" stroke="#F8F8F8" stroke-width="2" stroke-linecap="round" stroke-linejoin="round"/>
<path d="M5.2768 3.90625H19.7232C19.893 3.90625 20.0581 3.96155 20.1937 4.06379C20.3292 4.16603 20.4278 4.30963 20.4744 4.47287L21.875 9.375H3.125L4.52561 4.47287C4.57225 4.30963 4.67079 4.16603 4.80633 4.06379C4.94187 3.96155 5.10702 3.90625 5.2768 3.90625Z" stroke="#F8F8F8" stroke-width="2" stroke-linecap="round" stroke-linejoin="round"/>
<path d="M9.375 9.375V10.9375C9.375 11.7663 9.04576 12.5612 8.45971 13.1472C7.87366 13.7333 7.0788 14.0625 6.25 14.0625C5.4212 14.0625 4.62634 13.7333 4.04029 13.1472C3.45424 12.5612 3.125 11.7663 3.125 10.9375V9.375" stroke="#F8F8F8" stroke-width="2" stroke-linecap="round" stroke-linejoin="round"/>
<path d="M15.625 9.375V10.9375C15.625 11.7663 15.2958 12.5612 14.7097 13.1472C14.1237 13.7333 13.3288 14.0625 12.5 14.0625C11.6712 14.0625 10.8763 13.7333 10.2903 13.1472C9.70424 12.5612 9.375 11.7663 9.375 10.9375V9.375" stroke="#F8F8F8" stroke-width="2" stroke-linecap="round" stroke-linejoin="round"/>
<path d="M21.875 9.375V10.9375C21.875 11.7663 21.5458 12.5612 20.9597 13.1472C20.3737 13.7333 19.5788 14.0625 18.75 14.0625C17.9212 14.0625 17.1263 13.7333 16.5403 13.1472C15.9542 12.5612 15.625 11.7663 15.625 10.9375V9.375" stroke="#F8F8F8" stroke-width="2" stroke-linecap="round" stroke-linejoin="round"/>
</svg>
