<svg width="25" height="25" viewBox="0 0 25 25" fill="none" xmlns="http://www.w3.org/2000/svg">
<path d="M18.75 11.7188H21.3922C21.5372 11.7188 21.6795 11.6783 21.8029 11.6021C21.9263 11.5258 22.026 11.4167 22.0909 11.2869L23.8882 7.69228C23.9775 7.51366 23.9951 7.30763 23.9372 7.1165C23.8793 6.92537 23.7505 6.76366 23.5771 6.66458L18.75 3.90625" stroke="#F8F8F8" stroke-width="2" stroke-linecap="round" stroke-linejoin="round"/>
<path d="M6.24806 11.7188H3.6059C3.46081 11.7188 3.31859 11.6783 3.19517 11.6021C3.07175 11.5258 2.97201 11.4167 2.90713 11.2869L1.10982 7.69228C1.02052 7.51366 1.003 7.30763 1.06087 7.1165C1.11874 6.92537 1.2476 6.76366 1.42099 6.66458L6.24806 3.90625" stroke="#F8F8F8" stroke-width="2" stroke-linecap="round" stroke-linejoin="round"/>
<path d="M15.625 3.90625C15.625 4.73505 15.2958 5.52991 14.7097 6.11596C14.1237 6.70201 13.3288 7.03125 12.5 7.03125C11.6712 7.03125 10.8763 6.70201 10.2903 6.11596C9.70424 5.52991 9.375 4.73505 9.375 3.90625H6.25V20.3125C6.25 20.5197 6.33231 20.7184 6.47882 20.8649C6.62534 21.0114 6.82405 21.0938 7.03125 21.0938H17.9688C18.176 21.0938 18.3747 21.0114 18.5212 20.8649C18.6677 20.7184 18.75 20.5197 18.75 20.3125V3.90625H15.625Z" stroke="#F8F8F8" stroke-width="2" stroke-linecap="round" stroke-linejoin="round"/>
</svg>
