<svg width="25" height="25" viewBox="0 0 25 25" fill="none" xmlns="http://www.w3.org/2000/svg">
<path d="M14.8438 10.9375H18.75" stroke="#F8F8F8" stroke-width="2" stroke-linecap="round" stroke-linejoin="round"/>
<path d="M14.8438 14.0625H18.75" stroke="#F8F8F8" stroke-width="2" stroke-linecap="round" stroke-linejoin="round"/>
<path d="M8.99219 14.0625C10.2866 14.0625 11.3359 13.0132 11.3359 11.7188C11.3359 10.4243 10.2866 9.375 8.99219 9.375C7.69777 9.375 6.64844 10.4243 6.64844 11.7188C6.64844 13.0132 7.69777 14.0625 8.99219 14.0625Z" stroke="#F8F8F8" stroke-width="2" stroke-linecap="round" stroke-linejoin="round"/>
<path d="M5.96484 16.4062C6.13824 15.7354 6.52958 15.1412 7.07738 14.717C7.62519 14.2927 8.29841 14.0625 8.99127 14.0625C9.68413 14.0625 10.3574 14.2926 10.9052 14.7168C11.453 15.141 11.8444 15.7352 12.0179 16.406" stroke="#F8F8F8" stroke-width="2" stroke-linecap="round" stroke-linejoin="round"/>
<path d="M21.0938 4.6875H3.90625C3.47478 4.6875 3.125 5.03728 3.125 5.46875V19.5312C3.125 19.9627 3.47478 20.3125 3.90625 20.3125H21.0938C21.5252 20.3125 21.875 19.9627 21.875 19.5312V5.46875C21.875 5.03728 21.5252 4.6875 21.0938 4.6875Z" stroke="#F8F8F8" stroke-width="2" stroke-linecap="round" stroke-linejoin="round"/>
</svg>
