<svg width="25" height="25" viewBox="0 0 25 25" fill="none" xmlns="http://www.w3.org/2000/svg">
<path d="M1.5625 11.7188H23.4375" stroke="#F8F8F8" stroke-width="2" stroke-linecap="round" stroke-linejoin="round"/>
<path d="M21.875 17.9688V20.3125C21.875 20.5197 21.7927 20.7184 21.6462 20.8649C21.4997 21.0114 21.301 21.0938 21.0938 21.0938H18.75C18.5428 21.0938 18.3441 21.0114 18.1976 20.8649C18.0511 20.7184 17.9688 20.5197 17.9688 20.3125V17.9688" stroke="#F8F8F8" stroke-width="2" stroke-linecap="round" stroke-linejoin="round"/>
<path d="M7.03125 17.9688V20.3125C7.03125 20.5197 6.94894 20.7184 6.80243 20.8649C6.65591 21.0114 6.4572 21.0938 6.25 21.0938H3.90625C3.69905 21.0938 3.50034 21.0114 3.35382 20.8649C3.20731 20.7184 3.125 20.5197 3.125 20.3125V17.9688" stroke="#F8F8F8" stroke-width="2" stroke-linecap="round" stroke-linejoin="round"/>
<path d="M6.25 14.8438H7.8125" stroke="#F8F8F8" stroke-width="2" stroke-linecap="round" stroke-linejoin="round"/>
<path d="M17.1875 14.8438H18.75" stroke="#F8F8F8" stroke-width="2" stroke-linecap="round" stroke-linejoin="round"/>
<path d="M21.875 11.7188L18.9562 5.15145C18.8948 5.01336 18.7947 4.89603 18.668 4.81368C18.5413 4.73133 18.3934 4.6875 18.2423 4.6875H6.75771C6.60659 4.6875 6.45872 4.73133 6.332 4.81368C6.20529 4.89603 6.10518 5.01336 6.0438 5.15145L3.125 11.7188V17.9688H21.875V11.7188Z" stroke="#F8F8F8" stroke-width="2" stroke-linecap="round" stroke-linejoin="round"/>
</svg>
