<svg width="25" height="25" viewBox="0 0 25 25" fill="none" xmlns="http://www.w3.org/2000/svg">
<path d="M14.0625 21.875H10.9375" stroke="#F8F8F8" stroke-width="2" stroke-linecap="round" stroke-linejoin="round"/>
<path d="M12.0082 1.92934C10.1534 3.41509 3.94993 9.35211 9.37431 18.7494H15.6243C20.9359 9.35876 14.8232 3.4235 12.9879 1.9325C12.8495 1.82004 12.6768 1.75839 12.4986 1.75782C12.3203 1.75724 12.1472 1.81778 12.0082 1.92934V1.92934Z" stroke="#F8F8F8" stroke-width="2" stroke-linecap="round" stroke-linejoin="round"/>
<path d="M7.21137 10.875L4.14983 14.5488C4.07336 14.6406 4.01895 14.7487 3.99078 14.8648C3.96261 14.9809 3.96144 15.1019 3.98735 15.2185L5.19467 20.6514C5.22345 20.7809 5.28474 20.9009 5.37275 21.0002C5.46077 21.0995 5.57261 21.1747 5.69774 21.2188C5.82287 21.2629 5.95717 21.2744 6.08797 21.2522C6.21877 21.23 6.34176 21.1748 6.44536 21.092L9.37283 18.75" stroke="#F8F8F8" stroke-width="2" stroke-linecap="round" stroke-linejoin="round"/>
<path d="M17.7277 10.8047L20.848 14.5491C20.9245 14.6409 20.9789 14.749 21.0071 14.8651C21.0352 14.9812 21.0364 15.1022 21.0105 15.2188L19.8032 20.6517C19.7744 20.7812 19.7131 20.9012 19.6251 21.0005C19.5371 21.0998 19.4252 21.175 19.3001 21.2191C19.175 21.2632 19.0407 21.2746 18.9099 21.2525C18.7791 21.2303 18.6561 21.1751 18.5525 21.0923L15.625 18.7503" stroke="#F8F8F8" stroke-width="2" stroke-linecap="round" stroke-linejoin="round"/>
<path d="M12.5 10.5469C13.1472 10.5469 13.6719 10.0222 13.6719 9.375C13.6719 8.72779 13.1472 8.20312 12.5 8.20312C11.8528 8.20312 11.3281 8.72779 11.3281 9.375C11.3281 10.0222 11.8528 10.5469 12.5 10.5469Z" fill="#F8F8F8"/>
</svg>
