<svg width="25" height="25" viewBox="0 0 25 25" fill="none" xmlns="http://www.w3.org/2000/svg">
<path d="M8.39844 5.66299L12.5 1.5625L16.6016 5.66299" stroke="#A2AEB3" stroke-width="2" stroke-linecap="round" stroke-linejoin="round"/>
<path d="M12.5 12.5001V1.56543" stroke="#A2AEB3" stroke-width="2" stroke-linecap="round" stroke-linejoin="round"/>
<path d="M17.1875 9.375H19.5312C19.7385 9.375 19.9372 9.45731 20.0837 9.60382C20.2302 9.75034 20.3125 9.94905 20.3125 10.1562V20.3125C20.3125 20.5197 20.2302 20.7184 20.0837 20.8649C19.9372 21.0114 19.7385 21.0938 19.5312 21.0938H5.46875C5.26155 21.0938 5.06284 21.0114 4.91632 20.8649C4.76981 20.7184 4.6875 20.5197 4.6875 20.3125V10.1562C4.6875 9.94905 4.76981 9.75034 4.91632 9.60382C5.06284 9.45731 5.26155 9.375 5.46875 9.375H7.8125" stroke="#A2AEB3" stroke-width="2" stroke-linecap="round" stroke-linejoin="round"/>
</svg>
